<?xml version="1.0" standalone="no"?>
<!DOCTYPE svg PUBLIC "-//W3C//DTD SVG 20010904//EN"
 "http://www.w3.org/TR/2001/REC-SVG-20010904/DTD/svg10.dtd">
<svg version="1.0" xmlns="http://www.w3.org/2000/svg"
 width="1421.000000pt" height="1421.000000pt" viewBox="0 0 1421.000000 1421.000000"
 preserveAspectRatio="xMidYMid meet">
<metadata>
Created by potrace 1.14, written by Peter Selinger 2001-2017
</metadata>
<g transform="translate(0.000000,1421.000000) scale(0.100000,-0.100000)"
fill="#000000" stroke="none">
<path d="M6120 14110 c-38 -29 -34 -52 25 -129 30 -39 60 -78 67 -85 7 -7 20
-24 28 -36 8 -13 22 -30 31 -39 28 -28 84 -115 119 -185 37 -75 21 -64 218
-152 l62 -28 0 -662 0 -662 -46 2 c-25 1 -51 -3 -58 -9 -12 -13 -14 -203 -2
-223 4 -7 30 -12 59 -12 l52 0 -2 -162 c-2 -89 -5 -168 -7 -175 -4 -11 -60
-39 -91 -47 -5 -2 -41 -18 -80 -35 -38 -18 -131 -60 -205 -93 -166 -74 -211
-94 -275 -123 -106 -49 -477 -215 -481 -215 -2 0 -47 -20 -100 -45 -53 -25
-97 -45 -99 -45 -2 0 -36 -15 -77 -34 -149 -68 -194 -88 -215 -97 l-23 -9 0
193 c0 105 -4 197 -8 203 -27 40 -87 31 -96 -15 -3 -14 -5 -107 -5 -206 0 -99
0 -190 0 -203 -1 -17 -13 -28 -55 -46 -60 -27 -78 -50 -65 -83 13 -34 39 -43
82 -28 27 9 37 9 37 1 1 -17 1 -270 0 -533 l0 -232 -97 45 c-54 25 -114 52
-133 61 -19 8 -63 28 -98 44 -35 16 -65 29 -67 29 -2 0 -43 18 -90 40 -47 22
-88 40 -90 40 -2 0 -56 25 -120 55 -65 30 -120 55 -124 55 -5 0 -23 8 -42 17
-19 9 -196 90 -394 179 l-360 161 -2 184 c-2 111 -7 193 -14 206 -14 26 -50
34 -75 16 -17 -13 -19 -30 -21 -186 -1 -95 -2 -180 -2 -190 -1 -17 -28 -32
-191 -104 -19 -9 -53 -24 -75 -34 -22 -9 -87 -39 -145 -64 -58 -26 -123 -55
-146 -65 -288 -131 -601 -271 -614 -275 -5 -1 -78 -35 -165 -75 -22 -11 -101
-46 -175 -79 l-135 -60 -5 192 c-3 107 -10 200 -16 210 -14 23 -45 28 -69 11
-19 -14 -20 -29 -22 -222 -1 -114 -2 -215 -2 -224 -1 -17 -67 -58 -94 -58 -14
0 -34 -36 -32 -55 5 -32 19 -45 52 -45 19 0 43 5 54 10 13 7 19 7 20 0 0 -5 0
-185 0 -400 0 -214 0 -398 0 -408 -1 -13 -14 -23 -40 -31 -80 -23 -113 -84
-63 -113 23 -14 32 -14 65 -3 33 11 37 11 38 -4 1 -20 0 -616 0 -654 -1 -24
-9 -31 -55 -52 -62 -28 -83 -54 -66 -86 17 -30 50 -39 88 -23 31 13 32 12 33
-14 0 -36 0 -550 0 -584 -1 -19 -9 -31 -33 -42 -17 -9 -35 -16 -39 -16 -5 0
-20 -10 -33 -21 -26 -22 -27 -52 -4 -75 15 -15 68 -26 68 -15 0 5 9 11 20 14
14 4 20 0 21 -11 1 -21 0 -618 0 -654 -1 -23 -10 -32 -56 -53 -63 -30 -81 -54
-65 -86 17 -30 50 -39 88 -23 24 10 32 10 32 1 1 -7 2 -295 3 -640 2 -623 2
-629 23 -646 19 -15 402 -16 5746 -15 4500 1 5733 3 5756 13 25 10 29 17 27
44 -2 17 -11 36 -20 44 -14 10 -217 12 -1012 11 -546 -1 -996 2 -1001 6 -4 4
-8 1250 -9 2769 0 1519 -3 2780 -6 2802 -3 22 -8 67 -12 100 -4 33 -8 74 -10
90 -4 31 -15 136 -20 190 -1 17 -6 57 -9 90 -18 161 -18 154 -30 290 -3 33 -8
70 -10 83 -7 31 8 29 111 -19 48 -22 102 -47 118 -54 217 -96 731 -328 734
-331 3 -3 6 -37 7 -77 1 -89 9 -114 36 -123 12 -3 111 -7 221 -7 135 0 211 -4
236 -13 31 -11 40 -10 61 3 60 38 57 15 57 431 0 295 -3 386 -13 399 -11 16
-36 18 -258 19 l-245 2 -43 33 c-24 19 -52 43 -63 54 -11 11 -45 41 -75 65
-30 25 -62 52 -70 60 -8 9 -42 38 -75 65 -32 28 -66 57 -75 65 -9 8 -41 36
-71 62 -61 52 -83 71 -154 132 -27 24 -102 88 -165 142 -63 54 -120 103 -126
109 -13 12 -110 96 -179 155 -65 55 -116 110 -110 119 9 16 -36 40 -85 45 -28
3 -81 14 -118 25 -37 11 -121 34 -187 51 -165 44 -187 50 -209 55 -10 2 -44
12 -75 21 -31 9 -65 18 -76 20 -11 2 -42 11 -70 19 -40 12 -273 74 -335 90
-94 22 -117 29 -127 38 -7 5 -13 7 -13 4 0 -4 -29 3 -195 48 -27 7 -95 25
-150 40 -55 14 -114 30 -131 36 -17 5 -40 11 -51 14 -12 2 -71 17 -132 34 -61
17 -119 33 -129 35 -9 1 -24 6 -32 9 -8 4 -26 9 -40 11 -14 3 -50 12 -80 20
-368 100 -533 144 -561 151 -12 2 -36 9 -54 15 -18 6 -41 12 -51 14 -10 2 -55
14 -99 26 -44 12 -96 25 -115 30 -19 5 -53 14 -75 20 -22 6 -51 13 -64 16 -14
3 -28 7 -33 10 -4 3 -17 7 -28 10 -11 2 -28 6 -37 9 -10 2 -36 9 -58 15 -22 6
-48 13 -57 15 -10 3 -26 7 -35 9 -10 3 -54 14 -98 26 -44 12 -87 23 -95 25 -8
2 -107 29 -220 60 -215 59 -229 62 -257 69 -46 11 -157 53 -324 121 -53 22
-56 22 -79 5z m1060 -415 c0 4 6 3 13 -2 6 -4 17 -8 22 -9 6 -1 37 -9 70 -18
33 -10 87 -24 120 -32 33 -8 89 -23 125 -34 36 -10 76 -21 90 -24 14 -3 93
-23 175 -46 83 -23 184 -50 225 -61 238 -64 372 -100 425 -115 33 -9 92 -24
130 -34 71 -18 98 -26 370 -100 83 -22 157 -43 165 -45 28 -6 295 -77 402
-106 58 -15 141 -38 185 -49 43 -12 103 -28 133 -37 30 -8 71 -19 90 -24 19
-5 43 -12 53 -14 39 -11 97 -25 126 -31 14 -3 29 -8 35 -11 5 -4 26 -10 45
-14 20 -4 97 -24 171 -44 122 -33 156 -48 145 -65 -2 -3 -7 -37 -11 -75 -3
-39 -8 -81 -9 -95 -2 -14 -6 -59 -10 -100 -4 -41 -9 -83 -11 -93 -1 -9 -6 -54
-10 -100 -3 -45 -9 -85 -13 -89 -7 -8 -214 81 -219 94 -2 4 -8 8 -13 8 -8 0
-210 89 -444 195 -33 15 -73 33 -90 40 -16 8 -70 32 -118 54 -49 23 -90 41
-92 41 -2 0 -46 20 -99 45 -53 25 -99 45 -101 45 -2 0 -28 11 -57 24 -46 22
-128 59 -423 191 -33 15 -78 35 -100 45 -96 44 -156 70 -160 70 -2 0 -43 18
-90 40 -47 22 -88 40 -90 40 -4 0 -33 13 -170 76 -33 15 -62 28 -65 29 -14 5
-62 26 -120 53 -36 16 -193 87 -350 157 -157 70 -312 140 -345 154 -33 15 -79
36 -102 46 -24 10 -43 23 -43 27 0 5 9 4 20 -2 11 -6 20 -8 20 -5z m-296 -335
c3 0 52 -22 111 -50 59 -27 108 -50 110 -50 2 0 35 -14 72 -31 106 -49 182
-83 263 -119 87 -39 178 -79 235 -105 220 -100 572 -257 580 -259 6 -1 35 -13
65 -28 30 -14 78 -36 105 -48 28 -13 91 -42 140 -65 50 -24 113 -52 140 -64
28 -12 68 -31 90 -41 99 -46 175 -80 179 -80 2 0 37 -15 78 -34 92 -43 182
-83 233 -106 49 -21 142 -63 210 -94 28 -13 104 -47 170 -76 66 -29 156 -70
200 -90 44 -21 180 -81 302 -135 215 -95 223 -99 219 -124 -3 -14 -7 -53 -11
-86 -3 -33 -8 -80 -10 -105 -8 -70 -15 -141 -20 -190 -5 -49 -11 -107 -21
-185 -3 -27 -7 -68 -9 -90 -2 -22 -6 -60 -8 -85 -3 -25 -9 -76 -13 -115 -7
-76 -8 -86 -20 -190 -4 -38 -8 -1307 -8 -2820 0 -1512 -3 -2752 -7 -2755 -5
-4 -1680 -5 -1736 -1 -10 1 -13 223 -13 1076 0 591 2 1075 4 1075 2 0 19 -6
37 -14 39 -16 72 -7 89 23 17 33 -4 59 -71 88 l-59 26 0 349 c0 330 1 350 18
343 50 -20 71 -23 90 -9 22 15 35 51 21 60 -5 3 -7 9 -4 13 2 5 -25 21 -60 36
l-65 27 0 320 0 319 23 -7 c12 -3 28 -10 36 -14 16 -9 70 7 72 21 1 5 2 15 3
22 5 27 -18 49 -75 74 l-59 26 0 349 c0 330 1 350 18 343 60 -24 73 -24 98 0
36 36 21 64 -54 99 l-62 30 0 413 c0 227 1 413 3 413 1 0 20 -7 42 -14 44 -15
67 -9 85 24 11 21 -6 74 -21 64 -5 -3 -9 0 -9 5 0 6 -3 10 -8 9 -4 -2 -26 6
-50 16 l-42 19 0 196 c-1 138 -4 201 -13 212 -20 26 -56 30 -76 8 -16 -17 -18
-39 -17 -193 1 -170 1 -173 -19 -166 -11 4 -56 24 -99 44 -44 21 -103 47 -130
59 -28 11 -53 23 -56 26 -3 4 -10 7 -17 8 -6 1 -40 15 -75 31 -110 51 -150 69
-288 130 -74 33 -166 74 -205 92 -38 17 -83 38 -100 45 -16 7 -57 25 -90 40
-33 15 -118 53 -190 85 -71 32 -155 69 -185 83 -30 14 -81 37 -112 51 l-58 25
0 175 0 176 49 0 c29 0 53 5 57 12 12 19 8 219 -4 227 -6 4 -33 6 -59 6 l-48
-1 2 570 c1 314 2 601 2 638 l1 66 50 -24 c27 -13 52 -24 54 -24z m3722 -666
c1 -8 5 -43 8 -77 13 -133 23 -234 30 -282 2 -16 7 -61 11 -100 3 -38 7 -82 9
-96 l3 -26 -61 27 c-60 28 -61 29 -60 67 1 44 15 192 30 313 8 67 11 102 15
157 3 41 10 49 15 17z m181 -92 c28 -26 69 -61 90 -79 21 -18 52 -45 70 -60
17 -15 48 -42 70 -60 21 -18 54 -46 73 -64 19 -17 55 -47 79 -68 24 -20 56
-47 71 -61 15 -14 38 -34 51 -45 84 -71 175 -149 179 -154 3 -3 34 -31 70 -61
36 -30 67 -57 70 -60 3 -3 34 -30 70 -60 129 -109 124 -102 125 -169 1 -33 -1
-59 -4 -57 -9 5 -110 51 -256 116 -71 32 -155 69 -185 83 -194 89 -552 247
-560 247 -11 0 -18 23 -24 80 -3 25 -8 74 -11 110 -4 36 -9 81 -12 100 -2 19
-6 53 -8 75 -1 22 -6 63 -9 90 -12 92 -15 145 -8 145 4 0 30 -21 59 -48z
m-225 -891 c35 -16 84 -38 111 -50 35 -16 47 -27 48 -44 0 -12 2 -31 3 -42 2
-11 6 -54 10 -95 4 -41 9 -88 11 -105 3 -16 6 -57 9 -90 3 -34 5 -65 6 -70 6
-29 -4 -31 -162 -31 -157 1 -163 2 -161 21 4 47 13 133 17 165 3 19 8 62 11
95 3 33 8 85 11 115 10 89 12 114 13 138 1 12 3 22 6 22 2 0 32 -13 67 -29z
m-3891 -663 c0 -205 0 -390 -1 -411 0 -42 18 -31 -195 -126 -22 -10 -71 -32
-108 -50 -37 -17 -70 -31 -72 -31 -3 0 -48 -20 -101 -45 -52 -25 -97 -45 -99
-45 -3 0 -43 -18 -185 -82 -25 -11 -128 -58 -230 -103 -182 -81 -233 -104
-378 -171 -41 -19 -75 -34 -78 -34 -2 0 -28 -12 -57 -26 -28 -14 -73 -33 -98
-43 l-46 -18 -2 414 -2 413 23 9 c13 5 48 20 78 34 30 14 78 35 105 47 28 12
100 45 160 72 275 125 351 158 364 158 6 0 11 5 11 10 0 6 6 10 13 10 8 0 27
6 43 14 92 46 207 96 218 96 8 0 19 7 26 15 7 8 18 15 24 15 7 0 30 8 52 18
21 11 66 31 99 46 338 152 430 193 433 190 2 -1 4 -171 3 -376z m214 321 c5
-5 15 -9 22 -9 7 0 50 -17 95 -39 46 -21 105 -49 132 -61 88 -39 427 -190 576
-257 80 -36 163 -73 185 -83 22 -10 87 -39 145 -65 58 -26 132 -59 165 -74 33
-15 90 -41 127 -57 67 -29 67 -29 69 -69 1 -45 1 -724 0 -768 -1 -23 -4 -26
-18 -17 -10 5 -47 22 -83 38 -36 16 -100 46 -143 66 -43 20 -80 36 -82 36 -4
0 -179 78 -350 155 -33 15 -85 38 -115 52 -30 14 -73 33 -95 43 -22 11 -87 40
-145 65 -58 26 -118 53 -135 61 -16 7 -124 56 -240 107 l-210 94 -3 416 -2
416 47 -20 c27 -11 52 -24 58 -30z m3935 -805 c0 -6 -23 -31 -52 -55 -28 -24
-71 -62 -96 -84 -24 -22 -50 -43 -57 -47 -13 -8 -238 178 -231 190 8 13 436 8
436 -4z m-7638 -499 c0 -224 -4 -411 -8 -415 -5 -5 -56 -30 -114 -56 -58 -25
-143 -63 -190 -84 -47 -21 -116 -52 -155 -70 -38 -18 -110 -50 -160 -72 -49
-22 -108 -48 -130 -58 -22 -10 -83 -37 -135 -60 -52 -24 -133 -61 -180 -82
-47 -22 -89 -41 -95 -42 -5 -2 -41 -17 -80 -35 -71 -33 -188 -84 -215 -95 -8
-3 -22 -10 -30 -15 -16 -10 -99 -47 -137 -62 l-23 -9 2 416 3 415 90 40 c50
22 110 50 135 61 25 11 57 26 72 34 15 8 30 15 33 15 6 0 46 18 325 144 118
53 220 97 225 98 6 1 12 5 15 8 6 6 101 51 115 54 6 1 33 12 60 25 63 30 132
61 215 98 36 16 88 39 115 51 28 12 93 41 145 65 52 24 97 42 99 40 2 -2 3
-186 3 -409z m3489 113 c0 -428 0 -408 -13 -408 -6 0 -30 -9 -52 -19 -23 -11
-113 -52 -201 -91 -88 -39 -178 -80 -200 -90 -22 -10 -87 -40 -145 -65 -183
-82 -366 -164 -468 -211 -41 -19 -75 -34 -77 -34 -2 0 -32 -13 -67 -29 -105
-49 -382 -172 -405 -181 l-22 -9 1 348 c0 346 0 349 22 359 53 26 754 339 796
356 8 3 22 10 30 15 8 5 31 16 50 24 19 9 65 29 103 46 37 17 69 31 72 31 2 0
48 20 101 45 53 25 97 45 99 45 2 0 32 13 67 29 35 16 88 40 118 54 30 13 84
38 120 55 36 16 66 28 68 27 2 -2 3 -135 3 -297z m-3108 168 c43 -20 80 -36
82 -36 2 0 32 -13 67 -29 35 -16 131 -59 213 -96 83 -37 168 -75 190 -85 22
-10 65 -29 95 -43 30 -13 78 -35 105 -47 28 -13 167 -75 310 -139 143 -64 266
-120 273 -124 9 -6 12 -101 12 -418 0 -227 -4 -409 -9 -409 -7 0 -63 24 -206
89 -54 25 -208 94 -270 121 -27 12 -72 32 -100 45 -27 12 -70 32 -95 43 -67
29 -137 61 -210 95 -36 16 -145 65 -244 109 -180 80 -239 107 -343 154 -32 15
-77 35 -100 45 l-43 18 0 415 0 415 98 -43 c53 -24 132 -60 175 -80z m3284 92
c15 -6 30 -12 33 -13 3 -1 25 -11 50 -22 25 -11 92 -42 150 -68 58 -26 133
-60 168 -76 35 -16 65 -29 67 -29 2 0 43 -18 92 -41 48 -23 104 -48 123 -56
19 -9 49 -21 65 -28 17 -8 129 -58 250 -113 121 -55 254 -114 295 -132 41 -18
112 -50 158 -71 46 -22 87 -39 93 -39 11 0 10 17 10 -340 0 -370 0 -360 -10
-360 -5 0 -38 13 -73 29 -120 55 -183 83 -268 121 -47 21 -105 47 -130 58 -72
33 -153 69 -355 159 -265 119 -317 142 -337 153 -10 6 -25 10 -33 10 -8 0 -15
5 -15 10 0 6 -8 10 -18 10 -10 0 -22 4 -28 9 -5 5 -37 21 -72 35 -34 15 -91
39 -125 55 -34 16 -83 38 -109 50 l-48 21 0 351 c0 343 0 349 19 339 11 -5 32
-15 48 -22z m3596 -49 c16 -13 43 -37 60 -52 l32 -29 -45 -40 c-25 -22 -61
-53 -80 -68 l-35 -28 0 138 c0 138 0 139 20 121 11 -10 33 -29 48 -42z m382
-78 c0 -66 -2 -122 -5 -124 -3 -3 -36 23 -75 58 l-69 63 44 39 c24 21 54 48
65 59 11 12 25 22 30 23 6 1 10 -44 10 -118z m-146 -127 c36 -31 84 -73 106
-92 l39 -36 1 -135 c1 -75 -1 -144 -3 -153 -2 -9 -38 -46 -80 -81 -43 -36 -90
-77 -106 -91 -24 -23 -30 -25 -45 -14 -15 13 -135 116 -191 165 -25 22 -25 24
-25 162 l1 140 45 39 c126 111 175 151 183 152 5 0 39 -25 75 -56z m-4008
-825 c0 -162 0 -304 0 -317 -1 -18 -15 -29 -78 -58 -43 -19 -90 -41 -105 -50
-15 -8 -30 -15 -33 -15 -2 0 -26 -9 -52 -21 -27 -12 -50 -22 -53 -23 -3 0 -30
-13 -60 -27 -30 -14 -113 -51 -185 -83 -71 -31 -162 -72 -203 -91 -40 -19 -75
-34 -77 -34 -2 0 -41 -17 -87 -39 -45 -21 -184 -84 -308 -139 -124 -55 -256
-114 -295 -132 -38 -18 -80 -36 -91 -40 l-21 -9 -1 313 c0 171 2 317 6 322 4
6 77 41 162 79 85 38 191 85 235 105 44 21 114 52 155 70 41 18 113 50 158 71
46 22 85 39 87 39 4 0 90 39 203 91 34 16 64 29 67 29 2 0 57 25 120 55 64 30
119 55 123 55 3 0 33 13 66 29 34 16 81 37 105 47 24 11 69 31 100 45 31 15
57 25 59 24 2 -2 3 -135 3 -296z m259 223 c74 -33 165 -74 203 -91 37 -17 69
-31 71 -31 2 0 44 -19 93 -41 48 -23 126 -58 173 -79 47 -21 111 -49 143 -64
146 -66 186 -84 392 -176 121 -54 250 -112 286 -129 36 -17 71 -31 76 -31 32
0 35 -30 35 -327 -1 -353 0 -323 -12 -323 -5 0 -42 15 -82 34 -100 46 -151 69
-308 138 -74 33 -144 65 -155 71 -11 6 -24 12 -30 13 -5 1 -39 15 -75 32 -36
17 -105 48 -155 70 -49 22 -121 54 -160 72 -38 17 -90 41 -115 52 -25 10 -58
26 -75 34 -16 8 -124 56 -240 107 l-210 94 -3 322 c-1 177 1 320 5 318 5 -3
69 -32 143 -65z m3505 16 c26 -24 59 -53 73 -66 l26 -23 -45 -40 c-24 -22 -60
-53 -79 -68 l-35 -29 0 134 c0 74 3 134 6 134 3 0 28 -19 54 -42z m390 -93 c1
-69 -1 -125 -3 -125 -1 0 -20 15 -40 34 -20 18 -53 47 -72 64 l-34 30 49 43
c27 24 56 52 65 61 30 33 35 19 35 -107z m-7643 -302 c0 -175 -1 -331 -1 -346
-1 -25 -9 -32 -68 -59 -38 -17 -101 -46 -141 -64 -41 -19 -75 -34 -77 -34 -2
0 -34 -14 -72 -31 -37 -17 -87 -39 -109 -49 -23 -11 -88 -40 -145 -65 -57 -26
-129 -58 -159 -72 -30 -14 -95 -43 -145 -65 -89 -39 -126 -56 -235 -105 -30
-14 -68 -31 -85 -38 -116 -51 -373 -167 -387 -175 -10 -6 -20 -10 -23 -10 -3
0 -4 158 -3 350 l3 350 254 115 c140 63 261 115 268 115 7 0 13 5 13 10 0 6 5
10 10 10 9 0 300 127 435 190 78 36 296 133 325 144 8 3 22 10 30 15 28 17
305 139 309 135 2 -1 3 -146 3 -321z m263 247 c28 -12 73 -32 100 -45 28 -13
133 -60 235 -105 102 -45 232 -104 290 -130 58 -26 128 -57 155 -69 28 -12 68
-31 90 -41 120 -56 173 -80 178 -80 3 0 40 -17 84 -37 43 -21 81 -36 86 -35 4
1 7 -3 7 -8 0 -5 3 -9 8 -8 4 2 57 -20 119 -47 l112 -50 1 -347 c0 -202 -4
-348 -9 -348 -5 0 -52 20 -105 45 -53 25 -99 45 -101 45 -3 0 -40 16 -82 36
-43 20 -159 72 -258 116 -227 101 -282 126 -320 143 -101 47 -207 95 -210 95
-2 0 -36 15 -77 34 -40 18 -107 48 -148 66 -41 18 -109 48 -150 67 -41 20 -94
44 -117 54 l-43 18 0 351 0 350 53 -24 c28 -13 75 -33 102 -46z m7340 -158
l39 -36 1 -130 1 -131 -37 -35 c-52 -49 -148 -132 -169 -147 -18 -13 -14 -16
-140 94 -14 12 -43 38 -65 57 l-40 36 0 125 c1 142 -12 115 105 215 28 25 68
59 88 77 l36 31 71 -60 c38 -34 88 -77 110 -96z m-4113 -758 c-1 -228 -4 -329
-12 -334 -6 -4 -43 -5 -83 -4 -312 12 -425 16 -509 17 -54 1 -98 4 -98 5 0 2
15 18 33 34 17 17 83 78 146 137 63 58 144 134 180 167 36 34 93 86 125 115
32 30 93 86 135 126 42 39 77 70 79 68 2 -2 4 -151 4 -331z m3837 228 l23 -24
-34 -31 c-91 -84 -118 -106 -119 -99 -4 20 -5 248 -1 255 3 7 81 -52 131 -101z
m316 -26 c0 -81 -3 -122 -10 -118 -5 3 -23 18 -40 33 -16 14 -46 40 -65 57
l-35 31 32 28 c66 59 108 93 113 93 3 0 5 -56 5 -124z m-3951 -1 c12 -11 57
-51 101 -90 44 -38 85 -74 91 -80 73 -66 153 -137 170 -152 12 -10 50 -44 85
-75 35 -31 77 -67 93 -81 15 -13 24 -27 20 -29 -5 -3 -40 -6 -79 -8 -38 -1
-97 -4 -130 -5 -33 -2 -125 -7 -205 -10 -80 -4 -166 -8 -192 -9 l-48 -3 0 314
0 313 37 -32 c20 -18 46 -42 57 -53z m349 -44 c96 -43 147 -66 397 -178 140
-63 321 -144 403 -180 81 -36 147 -69 147 -72 0 -3 -39 -7 -88 -8 -78 -1 -225
-8 -410 -17 -75 -4 -45 -24 -297 200 -55 49 -116 103 -135 121 -19 17 -44 40
-56 50 -34 29 -165 145 -199 176 -31 28 2 15 238 -92z m-909 1 c-45 -42 -112
-106 -150 -141 -38 -35 -116 -107 -174 -161 -187 -174 -178 -167 -224 -164
-23 2 -117 6 -211 10 -244 9 -309 11 -320 13 -5 1 136 67 315 147 179 80 345
154 370 165 66 31 88 41 280 128 96 44 180 80 185 80 6 0 -27 -34 -71 -77z
m-3131 -297 c-1 -318 -4 -345 -37 -345 -7 0 -31 -9 -53 -20 -23 -11 -81 -37
-130 -59 -96 -42 -138 -61 -256 -115 -44 -20 -80 -36 -82 -36 -2 0 -32 -13
-67 -29 -103 -48 -466 -211 -723 -326 -132 -59 -253 -113 -269 -121 -16 -8
-31 -14 -33 -14 -1 0 -3 143 -3 319 l0 319 33 15 c76 36 168 77 172 77 2 0 46
20 99 45 52 24 106 47 120 51 14 3 30 12 37 20 6 8 17 14 24 14 7 0 46 15 87
34 40 19 100 46 133 61 306 136 376 168 495 223 36 16 94 42 128 56 59 25 112
49 257 117 33 15 62 28 65 28 3 1 4 -141 3 -314z m493 132 c285 -127 349 -156
452 -203 31 -15 75 -34 97 -44 22 -10 66 -29 98 -44 115 -52 163 -74 217 -96
30 -13 64 -30 75 -37 11 -7 27 -13 37 -13 10 0 18 -5 18 -12 0 -6 3 -9 6 -5 3
3 31 -7 63 -22 31 -15 82 -39 113 -52 l58 -24 0 -318 0 -318 -22 7 c-13 4 -51
20 -85 35 -35 16 -93 43 -129 59 -36 17 -67 30 -69 30 -2 0 -43 18 -92 41 -48
23 -101 47 -118 54 -37 16 -82 35 -170 75 -38 17 -85 38 -104 47 -20 9 -54 24
-76 34 -22 9 -80 36 -128 58 -49 23 -90 41 -92 41 -2 0 -39 16 -82 36 -43 20
-106 49 -141 65 -35 16 -65 29 -68 29 -2 0 -39 16 -81 36 -43 20 -97 45 -120
55 l-43 18 0 321 0 320 53 -24 c28 -13 178 -80 333 -149z m7062 37 c13 -10 38
-32 55 -47 l31 -28 1 -115 c0 -112 -1 -117 -25 -136 -14 -11 -56 -48 -94 -82
-96 -85 -102 -89 -118 -74 -7 7 -47 42 -88 78 -135 116 -126 101 -125 218 1
116 -13 91 115 200 30 26 68 59 84 73 l31 27 55 -47 c30 -26 65 -56 78 -67z
m-2337 -457 c4 -249 3 -577 -1 -577 -3 0 -17 10 -30 23 -14 12 -61 53 -105 92
-44 38 -87 76 -96 85 -19 18 -126 113 -258 230 -35 30 -75 66 -90 80 -14 14
-41 38 -60 53 -18 15 -32 30 -29 32 2 3 60 7 129 10 191 8 364 16 366 18 1 1
40 3 87 4 l86 2 1 -52z m-3101 28 c91 -4 208 -8 260 -10 52 -2 105 -4 118 -4
20 -1 17 -6 -25 -43 -26 -24 -57 -52 -69 -63 -20 -19 -208 -194 -270 -251 -17
-16 -78 -73 -135 -126 -109 -101 -150 -138 -155 -138 -4 0 -2 634 2 640 1 4
27 5 56 3 29 -1 127 -5 218 -8z m5120 -26 c19 -17 53 -46 75 -65 l40 -34 -45
-41 c-25 -22 -61 -53 -80 -69 l-35 -28 0 134 c0 74 2 134 5 134 3 0 21 -14 40
-31z m404 -91 c-1 -68 -2 -126 -3 -130 -1 -7 -37 23 -109 90 l-35 33 44 38
c46 40 104 90 104 91 0 0 0 -55 -1 -122z m-4734 86 c96 -3 209 -8 250 -9 41
-2 77 -4 80 -4 7 -2 -42 -25 -260 -121 -95 -42 -139 -62 -253 -114 -44 -20
-80 -36 -82 -36 -2 0 -43 -18 -92 -41 -48 -22 -101 -46 -118 -54 -16 -7 -57
-25 -90 -40 -33 -15 -74 -33 -91 -41 -16 -7 -61 -27 -100 -44 l-69 -31 50 46
c28 26 97 90 154 143 57 54 119 111 136 127 18 17 70 64 115 105 45 41 93 87
106 101 18 18 32 25 56 23 18 -2 112 -6 208 -10z m1501 -7 c15 -12 48 -42 75
-66 27 -24 80 -71 119 -105 38 -33 81 -72 96 -86 15 -14 50 -45 79 -70 30 -25
63 -54 74 -65 12 -11 52 -47 89 -79 64 -56 80 -79 40 -58 -10 6 -40 20 -68 32
-27 13 -73 33 -102 46 -28 13 -54 24 -56 24 -3 0 -47 20 -98 43 -139 65 -190
88 -234 107 -22 10 -65 29 -95 43 -30 13 -118 53 -195 87 -77 34 -173 77 -213
96 -40 19 -77 34 -82 34 -5 0 -11 3 -14 8 -2 4 10 8 27 8 167 6 341 14 343 16
1 2 44 4 96 5 84 2 96 0 119 -20z m-920 -1448 c0 -783 0 -1444 -1 -1469 l0
-45 -813 1 c-447 0 -819 4 -825 8 -10 6 -12 254 -11 1101 l1 1093 22 10 c11 6
48 23 81 37 77 34 102 45 205 93 47 21 106 47 132 58 27 10 48 22 48 27 0 4 6
7 13 7 8 0 119 47 248 105 129 58 250 113 269 121 41 19 88 40 183 83 38 17
70 31 72 31 2 0 32 13 67 29 178 83 303 138 306 136 2 -2 3 -643 3 -1426z
m4073 1181 c86 -75 81 -64 81 -209 0 -102 -3 -134 -15 -144 -21 -20 -171 -149
-191 -165 -14 -10 -31 1 -115 74 -54 47 -106 92 -114 100 -11 11 -14 43 -15
140 l0 126 40 31 c22 17 42 34 45 38 3 3 36 34 74 67 l70 61 55 -47 c31 -25
69 -58 85 -72z m-7679 53 c-16 -14 -49 -42 -71 -62 -23 -20 -67 -58 -99 -86
-32 -27 -63 -54 -69 -60 -6 -5 -45 -39 -86 -75 -41 -36 -77 -67 -80 -70 -3 -3
-34 -30 -70 -60 -36 -30 -70 -59 -76 -65 -27 -25 -138 -121 -151 -130 -8 -6
-62 -10 -131 -8 -64 1 -213 3 -329 5 -117 2 -213 4 -213 6 0 2 90 44 135 62
11 5 59 27 106 49 48 23 89 41 93 41 8 0 100 42 106 49 3 3 11 7 19 9 8 2 41
16 75 31 60 28 136 63 146 66 3 1 37 16 75 34 65 30 159 71 195 85 8 3 22 10
30 14 40 23 61 32 75 32 8 0 15 5 15 10 0 6 7 10 15 10 8 0 23 4 33 10 9 5 53
26 97 46 44 19 103 46 130 59 64 30 67 30 30 -2z m380 -13 c28 -12 75 -34 105
-47 79 -36 118 -53 275 -123 77 -34 167 -75 200 -90 80 -36 123 -56 290 -130
77 -34 178 -80 223 -101 46 -21 88 -39 93 -39 5 0 9 -3 9 -7 0 -5 -21 -8 -48
-9 -26 -1 -94 -4 -152 -7 -58 -4 -168 -9 -245 -12 -136 -6 -141 -5 -166 17
-14 13 -57 50 -94 83 -37 33 -80 71 -95 85 -16 14 -56 50 -91 80 -34 30 -67
60 -73 65 -6 6 -47 41 -91 79 -44 39 -96 85 -115 103 -19 18 -48 44 -65 59
-16 14 -25 24 -20 21 6 -2 33 -15 60 -27z m-262 -318 c-1 -152 -2 -282 -2
-288 -1 -10 -184 -11 -539 -3 l-123 2 29 26 c16 14 138 121 272 236 134 116
248 215 254 220 65 58 97 85 104 85 4 0 6 -125 5 -278z m192 202 c39 -36 75
-69 82 -72 6 -4 43 -36 83 -72 104 -94 121 -109 190 -170 34 -30 68 -59 74
-65 6 -5 30 -27 54 -47 23 -21 41 -39 40 -39 -4 -2 -58 -5 -225 -13 -73 -3
-177 -9 -230 -12 -54 -4 -109 -7 -123 -8 l-25 -1 -3 283 c-1 155 1 282 5 282
5 0 40 -30 78 -66z m7125 -484 l35 -31 -55 -47 c-30 -26 -65 -57 -77 -69 -13
-12 -24 -21 -24 -20 -1 1 -2 63 -3 138 l-1 137 45 -38 c25 -21 61 -52 80 -70z
m324 -27 c-1 -71 -2 -129 -3 -131 0 -2 -7 3 -14 10 -8 7 -39 35 -71 62 -31 27
-55 53 -54 57 2 5 137 127 143 129 0 0 0 -57 -1 -127z m-5919 -24 c3 -3 4
-155 3 -338 l-3 -332 -70 62 c-38 34 -101 89 -139 123 -38 34 -78 69 -90 79
-84 73 -142 125 -161 142 -11 11 -54 49 -95 85 -41 36 -88 77 -104 93 -16 15
-33 27 -37 27 -5 0 -13 8 -18 18 -8 15 -4 17 32 18 23 1 98 4 167 8 69 4 177
9 240 12 63 3 116 6 117 8 6 5 152 0 158 -5z m-760 -145 c49 -43 95 -83 101
-89 35 -31 157 -139 204 -181 30 -26 60 -53 66 -58 6 -6 32 -29 57 -50 26 -22
47 -43 47 -47 0 -4 -21 3 -47 15 -27 13 -86 40 -133 60 -47 21 -105 47 -130
58 -25 11 -83 37 -130 58 -47 21 -111 49 -142 64 -32 14 -82 37 -110 50 -29
13 -83 38 -121 55 -37 17 -70 31 -72 31 -3 0 -49 21 -102 46 -54 25 -109 50
-122 55 -13 5 -22 11 -20 14 5 4 89 9 379 21 74 3 137 7 139 10 2 2 14 -4 25
-14 12 -10 61 -54 111 -98z m6520 53 c11 -10 37 -33 58 -50 61 -50 97 -86 100
-99 1 -9 -55 -12 -220 -13 -139 0 -223 4 -223 10 0 9 26 34 109 103 25 20 61
51 80 69 39 35 32 37 96 -20z m-8588 34 c160 -1 162 -2 85 -63 -26 -21 -63
-52 -83 -70 -32 -29 -70 -62 -169 -148 -14 -12 -46 -39 -71 -61 -45 -38 -78
-67 -129 -112 -88 -79 -169 -147 -174 -147 -3 0 -6 137 -6 303 l0 304 203 -3
c111 -1 266 -3 344 -3z m720 -12 l143 -2 -41 -24 c-23 -13 -44 -23 -48 -23 -3
0 -91 -39 -196 -86 -104 -47 -204 -92 -221 -100 -96 -42 -196 -88 -324 -147
-52 -24 -98 -44 -102 -45 -10 -3 -111 -48 -168 -75 -25 -11 -49 -23 -55 -25
-12 -6 48 50 94 86 18 15 45 38 60 52 15 14 56 50 91 80 35 30 74 64 86 75 12
11 33 29 46 40 13 11 70 60 128 110 l105 90 130 -2 c72 -1 194 -3 272 -4z
m387 -1018 c1 -873 -1 -990 -14 -993 -13 -3 -1534 -2 -1612 1 l-27 1 -1 624
-1 623 58 28 c32 15 63 28 68 29 6 2 48 21 95 43 47 22 96 44 110 48 14 4 30
11 35 16 6 4 67 32 135 62 69 30 157 69 195 87 39 18 111 50 160 72 50 21 108
48 130 58 22 10 92 41 155 69 63 29 123 56 132 61 10 6 24 10 32 10 7 0 19 6
25 14 7 8 23 17 37 20 14 4 69 27 122 52 153 70 157 72 161 68 2 -1 4 -448 5
-993z"/>
<path d="M6788 3339 c-425 -102 -686 -520 -593 -948 19 -83 76 -215 123 -283
116 -166 307 -288 512 -327 72 -13 271 -6 335 12 355 102 589 398 598 757 l2
95 -397 3 c-374 2 -398 1 -399 -15 -1 -27 -1 -234 0 -263 l1 -25 175 1 c159 1
174 0 163 -15 -90 -121 -213 -178 -362 -168 -103 7 -142 19 -210 65 -110 75
-167 179 -172 319 -9 222 136 396 351 421 167 19 315 -50 407 -188 l16 -25
166 84 c91 45 166 88 166 95 -1 23 -62 108 -131 181 -101 106 -208 171 -359
217 -94 29 -288 32 -392 7z"/>
<path d="M10906 3335 c-93 -28 -141 -53 -204 -110 -99 -89 -144 -206 -138
-360 5 -133 42 -214 130 -292 65 -57 141 -95 301 -148 77 -26 162 -59 188 -73
98 -53 110 -150 23 -191 -113 -55 -281 1 -361 120 l-31 45 -149 -93 c-83 -51
-154 -99 -159 -107 -18 -27 93 -160 188 -225 60 -41 176 -94 241 -111 28 -6
93 -14 145 -16 320 -12 556 163 577 427 12 148 -32 281 -121 372 -65 65 -154
113 -322 170 -156 54 -205 77 -233 113 -24 31 -27 90 -6 117 18 25 81 46 119
40 50 -7 128 -47 177 -91 l46 -41 129 125 129 124 -65 61 c-155 146 -399 204
-604 144z"/>
<path d="M12190 3345 c-139 -31 -275 -126 -329 -233 -36 -70 -54 -168 -48
-257 15 -223 129 -333 457 -440 185 -60 237 -95 242 -164 5 -69 -55 -111 -157
-111 -102 0 -213 61 -265 146 -15 24 -27 33 -38 29 -11 -4 -294 -177 -309
-189 -5 -4 67 -103 98 -136 148 -154 326 -223 554 -215 239 8 422 126 491 315
38 107 26 276 -27 382 -62 124 -173 198 -415 278 -187 62 -234 97 -234 172 0
41 38 87 75 89 86 6 161 -23 236 -89 l46 -41 128 123 128 123 -19 25 c-30 40
-135 115 -204 146 -127 58 -281 75 -410 47z"/>
<path d="M1465 2568 l0 -773 198 -3 197 -2 0 300 0 300 238 0 239 0 0 170 1
170 -239 0 -239 0 0 134 0 133 268 1 c147 0 274 1 282 1 13 1 15 27 15 171 l0
170 -480 0 -480 0 0 -772z"/>
<path d="M2576 2778 c0 -486 3 -570 17 -615 51 -168 209 -304 423 -365 106
-30 334 -32 434 -4 229 64 398 217 439 397 7 27 11 260 11 597 l0 552 -197 0
-198 0 -1 -518 c-1 -573 1 -552 -68 -625 -76 -81 -216 -106 -319 -57 -61 29
-121 97 -136 155 -7 29 -11 209 -11 544 l0 501 -198 0 -197 0 1 -562z"/>
<path d="M4180 2565 l0 -775 445 0 445 0 -3 172 -2 172 -245 0 -245 0 0 603 0
603 -197 0 -198 0 0 -775z"/>
<path d="M5210 2565 l0 -775 444 0 444 0 0 170 c0 151 -2 170 -17 171 -9 0
-119 2 -246 2 l-230 2 -1 590 c-1 325 -2 596 -3 603 -1 9 -47 12 -196 12
l-195 0 0 -775z"/>
<path d="M8000 2565 l0 -775 444 0 444 0 1 170 c0 153 -2 170 -17 171 -9 1
-120 2 -247 2 l-230 2 -1 590 c-1 325 -2 596 -3 603 -1 9 -47 12 -196 12
l-195 0 0 -775z"/>
<path d="M9489 3313 c-6 -16 -92 -253 -191 -528 -99 -275 -198 -549 -220 -610
-22 -60 -62 -172 -89 -247 l-49 -138 213 0 213 0 43 135 42 135 271 -2 271 -3
41 -130 42 -130 213 -3 c201 -2 213 -1 206 15 -7 19 -129 355 -241 667 -36 99
-90 249 -120 331 -30 83 -85 236 -123 340 l-69 190 -221 3 -221 2 -11 -27z
m266 -490 c14 -49 51 -166 82 -261 30 -96 53 -176 50 -178 -2 -3 -78 -3 -169
-2 l-164 3 80 262 c45 145 84 263 87 263 4 0 19 -39 34 -87z"/>
<path d="M4495 1236 c-139 -44 -214 -153 -202 -295 10 -122 76 -193 242 -260
184 -75 220 -102 232 -175 17 -105 -107 -174 -240 -134 -39 12 -95 59 -127
107 l-15 23 -68 -42 c-37 -23 -67 -46 -67 -50 0 -18 69 -97 114 -131 138 -104
357 -102 483 5 116 98 115 311 -1 419 -42 38 -100 69 -240 128 -121 51 -155
91 -146 173 5 51 56 87 128 91 53 2 97 -14 142 -53 l40 -34 58 56 57 56 -35
31 c-63 56 -150 90 -237 94 -44 2 -95 -2 -118 -9z"/>
<path d="M5277 1240 c-142 -36 -227 -155 -214 -300 11 -126 83 -198 269 -271
171 -66 220 -116 204 -204 -13 -65 -75 -105 -166 -105 -82 0 -147 38 -200 119
l-16 23 -67 -42 c-37 -23 -67 -46 -67 -50 0 -18 68 -97 113 -130 193 -146 501
-78 559 124 20 71 13 160 -17 222 -35 72 -101 121 -240 179 -162 68 -198 95
-208 157 -21 128 156 181 272 81 l41 -35 58 56 57 55 -35 32 c-59 53 -150 90
-232 94 -40 3 -90 0 -111 -5z"/>
<path d="M8335 1236 c-139 -45 -215 -156 -202 -296 11 -126 82 -197 269 -271
121 -47 160 -71 190 -117 38 -58 12 -139 -56 -172 -102 -49 -230 -7 -297 99
l-15 23 -67 -42 c-37 -23 -67 -44 -67 -46 0 -13 52 -83 81 -110 77 -71 176
-105 294 -101 88 4 163 31 222 81 87 74 113 233 56 345 -38 74 -97 117 -250
182 -170 71 -203 104 -193 193 11 105 182 122 282 28 l27 -25 58 56 58 56 -35
32 c-60 55 -147 89 -237 94 -49 3 -93 0 -118 -9z"/>
<path d="M9505 1237 c-141 -47 -215 -156 -202 -297 12 -136 73 -190 328 -295
131 -53 175 -122 133 -211 -22 -46 -85 -76 -157 -73 -87 4 -144 38 -197 118
l-16 23 -67 -42 c-37 -23 -67 -46 -67 -50 0 -18 69 -97 114 -131 72 -54 153
-79 251 -75 90 4 147 21 207 63 117 80 148 259 68 389 -32 51 -106 99 -240
156 -169 71 -211 117 -188 206 24 90 175 104 269 24 l39 -34 58 56 57 56 -35
31 c-62 55 -151 91 -238 95 -47 2 -92 -1 -117 -9z"/>
<path d="M2410 725 l0 -506 252 2 c266 1 289 4 364 52 40 26 82 86 98 139 18
60 10 152 -17 205 -19 36 -86 98 -117 108 -21 7 -20 8 14 31 19 13 48 46 63
72 24 41 28 57 28 127 0 92 -15 131 -71 189 -72 74 -98 80 -371 84 l-243 4 0
-507z m445 334 c104 -48 104 -189 1 -238 -36 -18 -62 -21 -164 -21 l-121 0 1
133 c0 72 2 135 4 138 2 4 57 7 121 7 95 0 126 -4 158 -19z m12 -413 c36 -8
89 -63 99 -102 15 -59 -19 -128 -78 -154 -29 -13 -66 -16 -175 -16 l-138 1 -2
130 c-2 72 -1 135 1 140 4 12 245 13 293 1z"/>
<path d="M3306 858 c1 -412 2 -424 63 -505 71 -94 175 -143 316 -149 96 -3
149 7 230 45 72 34 127 87 163 155 l27 51 3 388 3 388 -83 -3 -83 -3 0 -350
c-1 -342 -1 -351 -23 -396 -38 -78 -132 -129 -227 -124 -97 5 -171 53 -206
133 -17 40 -19 73 -19 393 l0 349 -83 0 -82 0 1 -372z"/>
<path d="M5870 725 l0 -505 83 0 82 0 0 503 0 502 -83 3 -82 3 0 -506z"/>
<path d="M6260 725 l0 -506 83 3 82 3 0 368 c0 202 2 367 5 367 3 -1 84 -107
180 -236 96 -130 182 -244 190 -254 8 -10 53 -70 100 -134 l85 -115 83 -1 c71
0 82 2 83 18 0 19 0 960 0 980 -1 8 -24 12 -81 12 l-80 0 -2 -371 -3 -370
-175 233 c-96 128 -177 235 -180 238 -3 3 -50 65 -105 138 l-99 132 -83 0 -83
0 0 -505z"/>
<path d="M7380 725 l0 -505 290 0 290 0 0 75 0 75 -207 2 -208 3 0 137 0 138
180 0 180 0 -1 68 c-1 37 -2 70 -3 75 0 4 -79 7 -175 7 -130 0 -175 3 -178 13
-2 6 -4 68 -3 137 l0 125 208 3 207 2 0 75 0 75 -290 0 -290 0 0 -505z"/>
<path d="M10370 725 l0 -505 83 0 82 0 0 503 0 502 -83 3 -82 3 0 -506z"/>
<path d="M11066 858 c1 -412 2 -424 63 -505 68 -89 167 -139 304 -150 177 -14
340 68 406 207 l26 55 3 383 3 382 -83 0 -83 0 -1 -348 c0 -388 -2 -399 -65
-460 -92 -90 -265 -88 -351 4 -55 59 -58 85 -58 460 l0 344 -83 0 -82 0 1
-372z"/>
<path d="M10062 400 c-101 -62 -33 -225 83 -196 95 24 112 156 25 201 -39 20
-69 19 -108 -5z"/>
<path d="M10719 405 c-58 -32 -74 -95 -39 -153 50 -81 178 -59 196 35 17 90
-77 161 -157 118z"/>
</g>
</svg>
